<svg version="1.1" id="Layer_1" xmlns="http://www.w3.org/2000/svg" xmlns:xlink="http://www.w3.org/1999/xlink" x="0px" y="0px"
	 width="100%" viewBox="0 0 150 150" enable-background="new 0 0 150 150" xml:space="preserve">
<path fill="#F0994A" opacity="1.000000" stroke="none" 
	d="
M98.000000,151.000000 
	C65.744568,151.000000 33.489132,151.000000 1.000000,151.000000 
	C1.000000,122.979538 1.000000,94.958427 1.467517,66.469269 
	C6.871237,66.001221 11.807439,66.001221 16.305759,66.001221 
	C19.228071,57.233303 13.160535,47.482208 21.274080,39.800354 
	C27.250671,47.731453 32.927841,55.308857 38.669010,62.837460 
	C39.543770,63.984562 40.676342,65.743042 41.755466,65.792831 
	C47.927025,66.077629 54.118484,65.931190 60.922997,65.931190 
	C58.925339,63.107018 57.514397,61.112309 55.707378,58.557652 
	C58.970699,57.205032 61.761986,55.814968 64.697876,54.878006 
	C71.542976,52.693451 78.220688,54.002026 80.864166,57.805794 
	C83.713417,61.905647 82.757561,68.573738 77.252411,74.051468 
	C70.907768,80.364502 63.934448,86.081924 56.949398,91.704247 
	C50.801632,96.652626 49.885502,98.706436 52.202557,107.219818 
	C67.151299,107.219818 82.225586,107.219818 98.000000,107.219818 
	C98.000000,122.107925 98.000000,136.553955 98.000000,151.000000 
z"/>
<path fill="#F0994A" opacity="1.000000" stroke="none" 
	d="
M59.000000,1.000000 
	C89.597000,1.000000 120.194000,1.000000 151.000000,1.000000 
	C151.000000,34.353935 151.000000,67.708313 150.679337,101.375572 
	C148.254135,93.578125 142.299973,88.871246 134.702530,88.285965 
	C122.515106,87.347092 110.202408,88.034309 97.879974,88.034309 
	C97.721748,89.624199 97.513741,91.714340 97.312775,93.733673 
	C89.361084,93.733673 81.801682,93.733673 73.395622,93.733673 
	C75.846382,91.845818 77.825089,90.647408 79.399414,89.050377 
	C85.085556,83.282227 91.779968,78.097946 95.996613,71.377441 
	C104.524185,57.786186 97.104836,43.471897 81.209259,41.960030 
	C74.708237,41.341698 67.954605,41.937508 61.469196,42.956573 
	C53.103230,44.271133 53.173508,44.692677 52.887268,53.190571 
	C52.879597,53.418255 52.546467,53.634972 52.106731,54.172840 
	C46.215660,46.517876 40.382816,38.938572 34.357395,31.109028 
	C37.519447,27.363453 40.559273,23.866377 43.483936,20.275505 
	C48.692680,13.880248 53.831776,7.428261 59.000000,1.000000 
z"/>
<path fill="#020100" opacity="1.000000" stroke="none" 
	d="
M58.531731,1.000000 
	C53.831776,7.428261 48.692680,13.880248 43.483936,20.275505 
	C40.559273,23.866377 37.519447,27.363453 34.357395,31.109028 
	C40.382816,38.938572 46.215660,46.517876 52.106731,54.172840 
	C52.546467,53.634972 52.879597,53.418255 52.887268,53.190571 
	C53.173508,44.692677 53.103230,44.271133 61.469196,42.956573 
	C67.954605,41.937508 74.708237,41.341698 81.209259,41.960030 
	C97.104836,43.471897 104.524185,57.786186 95.996613,71.377441 
	C91.779968,78.097946 85.085556,83.282227 79.399414,89.050377 
	C77.825089,90.647408 75.846382,91.845818 73.395622,93.733673 
	C81.801682,93.733673 89.361084,93.733673 97.312775,93.733673 
	C97.513741,91.714340 97.721748,89.624199 97.879974,88.034309 
	C110.202408,88.034309 122.515106,87.347092 134.702530,88.285965 
	C142.299973,88.871246 148.254135,93.578125 150.679337,101.844231 
	C151.000000,105.692909 151.000000,109.385818 150.685593,113.696022 
	C143.933884,131.632812 128.881653,131.053375 114.000000,131.115204 
	C114.000000,138.085800 114.000000,144.542892 114.000000,151.000000 
	C108.977905,151.000000 103.955818,151.000000 98.466858,151.000000 
	C98.000000,136.553955 98.000000,122.107925 98.000000,107.219818 
	C82.225586,107.219818 67.151299,107.219818 52.202557,107.219818 
	C49.885502,98.706436 50.801632,96.652626 56.949398,91.704247 
	C63.934448,86.081924 70.907768,80.364502 77.252411,74.051468 
	C82.757561,68.573738 83.713417,61.905647 80.864166,57.805794 
	C78.220688,54.002026 71.542976,52.693451 64.697876,54.878006 
	C61.761986,55.814968 58.970699,57.205032 55.707378,58.557652 
	C57.514397,61.112309 58.925339,63.107018 60.922997,65.931190 
	C54.118484,65.931190 47.927025,66.077629 41.755466,65.792831 
	C40.676342,65.743042 39.543770,63.984562 38.669010,62.837460 
	C32.927841,55.308857 27.250671,47.731453 21.274080,39.800354 
	C13.160535,47.482208 19.228071,57.233303 16.305759,66.001221 
	C11.807439,66.001221 6.871237,66.001221 1.467517,66.000610 
	C1.000000,44.452400 1.000000,22.904802 1.000000,1.000000 
	C6.013552,1.000000 11.035578,1.000000 16.549831,1.468247 
	C17.042057,11.119410 17.042057,20.302324 17.042057,30.920164 
	C21.895306,24.851309 25.801897,20.123760 29.529863,15.259318 
	C33.116043,10.579886 36.517422,5.758828 40.000000,0.999999 
	C46.021152,1.000000 52.042305,1.000000 58.531731,1.000000 
M133.123154,113.277878 
	C136.224197,101.695312 129.050888,96.485443 114.397278,99.643211 
	C114.397278,106.027779 114.397278,112.398964 114.397278,119.138718 
	C121.080620,118.343925 128.267746,121.169922 133.123154,113.277878 
z"/>
<path fill="#EF9949" opacity="1.000000" stroke="none" 
	d="
M114.468658,151.000000 
	C114.000000,144.542892 114.000000,138.085800 114.000000,131.115204 
	C128.881653,131.053375 143.933884,131.632812 150.685593,114.156662 
	C151.000000,126.259949 151.000000,138.519897 151.000000,151.000000 
	C138.979996,151.000000 126.958656,151.000000 114.468658,151.000000 
z"/>
<path fill="#EB9648" opacity="1.000000" stroke="none" 
	d="
M39.531376,0.999999 
	C36.517422,5.758828 33.116043,10.579886 29.529863,15.259318 
	C25.801897,20.123760 21.895306,24.851309 17.042057,30.920164 
	C17.042057,20.302324 17.042057,11.119410 17.021029,1.468247 
	C24.354250,1.000000 31.708502,1.000000 39.531376,0.999999 
z"/>
<path fill="#EC9748" opacity="1.000000" stroke="none" 
	d="
M132.981262,113.647102 
	C128.267746,121.169922 121.080620,118.343925 114.397278,119.138718 
	C114.397278,112.398964 114.397278,106.027779 114.397278,99.643211 
	C129.050888,96.485443 136.224197,101.695312 132.981262,113.647102 
z"/>
</svg>